<svg width="25" height="24" viewBox="0 0 25 24" fill="none" xmlns="http://www.w3.org/2000/svg">
<path fill-rule="evenodd" clip-rule="evenodd" d="M20.8464 18.5231C20.6698 18.6239 20.47 18.6769 20.2666 18.6769H18.3102C17.9559 18.6769 17.621 18.8377 17.3994 19.1137L17.1282 19.4516C17.0189 19.588 16.8803 19.698 16.7227 19.7736C16.5651 19.8493 16.3925 19.8885 16.2178 19.8885H8.78225C8.60746 19.8885 8.43489 19.8493 8.2773 19.7736C8.1197 19.698 7.98111 19.588 7.87175 19.4516L7.60062 19.1137C7.49117 18.9774 7.35251 18.8674 7.19486 18.7917C7.03721 18.7161 6.86459 18.6769 6.68975 18.6769H4.73337C4.53004 18.6769 4.33021 18.6239 4.15363 18.5231L2 17.292H23L20.8464 18.5231Z" stroke="black" stroke-miterlimit="2" stroke-linecap="round" stroke-linejoin="round"/>
<path fill-rule="evenodd" clip-rule="evenodd" d="M21.875 17.2692C21.875 17.2995 3.125 17.2995 3.125 17.2692C3.125 12.0949 7.32575 7.89417 12.5 7.89417C17.6743 7.89417 21.875 12.0949 21.875 17.2692Z" stroke="black" stroke-miterlimit="2" stroke-linecap="round" stroke-linejoin="round"/>
<path d="M5.37504 17.2748C5.37504 16.0223 5.69904 14.8448 6.26754 13.8214M8.11029 11.664C8.56806 11.3051 9.06802 11.0035 9.59904 10.7659M12.5 7.82591V6.32591M14.375 6.32591H10.625M4.51404 7.07591C4.51404 7.07591 4.97379 5.99966 4.38879 4.74566M20.486 7.07591C20.486 7.07591 20.0263 5.99966 20.6113 4.74566M8.10692 4.74566C8.10692 4.74566 8.56704 3.66904 7.98167 2.41504M16.8932 4.74566C16.8932 4.74566 16.433 3.66904 17.0184 2.41504" stroke="black" stroke-miterlimit="2" stroke-linecap="round" stroke-linejoin="round"/>
</svg>
