<svg width="37" height="37" viewBox="0 0 37 37" fill="none" xmlns="http://www.w3.org/2000/svg">
<path d="M13.875 29.2913C6.16671 31.6038 6.16671 25.4371 3.08337 24.6663M24.6667 33.9163V27.9501C24.7245 27.2149 24.6252 26.4759 24.3754 25.7821C24.1255 25.0884 23.7308 24.4557 23.2175 23.9263C28.0584 23.3867 33.1459 21.5521 33.1459 13.1346C33.1455 10.9822 32.3175 8.91232 30.8334 7.35339C31.5362 5.47025 31.4865 3.38876 30.6946 1.54131C30.6946 1.54131 28.8755 1.00172 24.6667 3.82297C21.1332 2.86532 17.4085 2.86532 13.875 3.82297C9.66629 1.00172 7.84712 1.54131 7.84712 1.54131C7.05529 3.38876 7.0056 5.47025 7.70837 7.35339C6.21315 8.92388 5.38435 11.0125 5.39587 13.1809C5.39587 21.5367 10.4834 23.3713 15.3242 23.9726C14.817 24.4967 14.4258 25.1217 14.1761 25.807C13.9265 26.4923 13.8239 27.2225 13.875 27.9501V33.9163" stroke="black" stroke-linecap="round" stroke-linejoin="round"/>
</svg>
