<svg width="26" height="26" viewBox="0 0 26 26" fill="none" xmlns="http://www.w3.org/2000/svg">
<path d="M22.5767 4.99431C22.0234 4.44073 21.3664 4.0016 20.6433 3.70199C19.9202 3.40238 19.1452 3.24817 18.3625 3.24817C17.5798 3.24817 16.8048 3.40238 16.0817 3.70199C15.3586 4.0016 14.7017 4.44073 14.1484 4.99431L13 6.14265L11.8517 4.99431C10.734 3.87665 9.21815 3.24875 7.63753 3.24875C6.05691 3.24875 4.54103 3.87665 3.42336 4.99431C2.30569 6.11198 1.6778 7.62786 1.6778 9.20848C1.6778 10.7891 2.30569 12.305 3.42336 13.4226L13 22.9993L22.5767 13.4226C23.1303 12.8693 23.5694 12.2124 23.869 11.4893C24.1686 10.7662 24.3228 9.99117 24.3228 9.20848C24.3228 8.42579 24.1686 7.65076 23.869 6.92768C23.5694 6.2046 23.1303 5.54763 22.5767 4.99431Z" stroke="black" stroke-linecap="round" stroke-linejoin="round"/>
</svg>
