<svg width="24" height="25" viewBox="0 0 24 25" fill="none" xmlns="http://www.w3.org/2000/svg">
<path d="M21 2.84937L19 4.84937M19 4.84937L22 7.84937L18.5 11.3494L15.5 8.34937M19 4.84937L15.5 8.34937M11.39 12.4594C11.9063 12.9688 12.3168 13.5754 12.5978 14.2442C12.8787 14.9129 13.0246 15.6306 13.027 16.356C13.0295 17.0814 12.8884 17.8 12.6119 18.4707C12.3354 19.1413 11.9291 19.7506 11.4161 20.2635C10.9032 20.7764 10.2939 21.1828 9.6233 21.4593C8.95268 21.7357 8.234 21.8768 7.50863 21.8744C6.78327 21.872 6.06554 21.7261 5.39679 21.4451C4.72804 21.1642 4.12147 20.7537 3.612 20.2374C2.61013 19.2001 2.05576 17.8107 2.06829 16.3687C2.08082 14.9266 2.65925 13.5471 3.679 12.5274C4.69874 11.5076 6.07821 10.9292 7.52029 10.9167C8.96238 10.9041 10.3517 11.4585 11.389 12.4604L11.39 12.4594ZM11.39 12.4594L15.5 8.34937" stroke="black" stroke-linecap="round" stroke-linejoin="round"/>
</svg>
